# xmcd
#
# Track frame offsets:
#  150
#  17241
#  44478
#  65940
#  77862
#  103693
#  130689
#  148460
#  174937
#  186820
#  201883
#  225894
#  237455
#
# Disc length: 3386 seconds
#
# Revision: 0
# Processed by: cddbd v1.5.2PL0 Copyright (c) Steve Scherf et al.
# Submitted via: AltoMP3_Maker 3.0
#
DISCID=ba0d380d
DTITLE=Nate Myers and The Aces - Persist
DYEAR=1900
DGENRE=
TTITLE0=Jager and Waffles
TTITLE1=When Are You Coming Home
TTITLE2=Angel
TTITLE3=Please Forgive Me
TTITLE4=Just Wait
TTITLE5=Never Had So Much Fun
TTITLE6=On My Own
TTITLE7=Beauty All Around
TTITLE8=Just Be There
TTITLE9=Put It Where She Told Me
TTITLE10=The Untouchable
TTITLE11=Ill Fly Away
TTITLE12=Buck's Blues
EXTD=
EXTT0=
EXTT1=
EXTT2=
EXTT3=
EXTT4=
EXTT5=
EXTT6=
EXTT7=
EXTT8=
EXTT9=
EXTT10=
EXTT11=
EXTT12=
PLAYORDER=
